<svg width="414" height="180" viewBox="0 0 414 180" fill="none" xmlns="http://www.w3.org/2000/svg">
<path opacity="0.951181" d="M0 1.19849C0 1.19849 71.7171 -0.870109 117.26 9.27057C162.803 19.4112 180.059 31.5642 233.777 41.7049C294.563 50.7188 365.204 73.6702 414 73.6702" stroke="white" stroke-width="3" stroke-linecap="round" stroke-linejoin="round"/>
<path d="M0 2.21848C0 2.21848 106.214 1.09983 136.53 16.7609C166.845 32.4219 168.316 51.9795 210.694 66.7926C253.071 81.6058 269.006 122.778 307.983 144.033C333.397 157.891 340.742 151.814 367.013 164.414C381.033 171.139 397.526 176.727 419 176.727" stroke="white" stroke-width="3" stroke-linecap="round" stroke-linejoin="round"/>
<g filter="url(#filter0_d)">
<rect x="368" y="161" width="14" height="14" rx="7" fill="#04CD00"/>
<rect x="369.5" y="162.5" width="11" height="11" rx="5.5" stroke="white" stroke-width="3"/>
</g>
<g filter="url(#filter1_d)">
<rect x="368" y="62" width="14" height="14" rx="7" fill="#EE304E"/>
<rect x="369.5" y="63.5" width="11" height="11" rx="5.5" stroke="white" stroke-width="3"/>
</g>
<defs>
<filter id="filter0_d" x="362" y="157" width="26" height="26" filterUnits="userSpaceOnUse" color-interpolation-filters="sRGB">
<feFlood flood-opacity="0" result="BackgroundImageFix"/>
<feColorMatrix in="SourceAlpha" type="matrix" values="0 0 0 0 0 0 0 0 0 0 0 0 0 0 0 0 0 0 127 0" result="hardAlpha"/>
<feOffset dy="2"/>
<feGaussianBlur stdDeviation="3"/>
<feColorMatrix type="matrix" values="0 0 0 0 0 0 0 0 0 0 0 0 0 0 0 0 0 0 0.139942 0"/>
<feBlend mode="normal" in2="BackgroundImageFix" result="effect1_dropShadow"/>
<feBlend mode="normal" in="SourceGraphic" in2="effect1_dropShadow" result="shape"/>
</filter>
<filter id="filter1_d" x="362" y="58" width="26" height="26" filterUnits="userSpaceOnUse" color-interpolation-filters="sRGB">
<feFlood flood-opacity="0" result="BackgroundImageFix"/>
<feColorMatrix in="SourceAlpha" type="matrix" values="0 0 0 0 0 0 0 0 0 0 0 0 0 0 0 0 0 0 127 0" result="hardAlpha"/>
<feOffset dy="2"/>
<feGaussianBlur stdDeviation="3"/>
<feColorMatrix type="matrix" values="0 0 0 0 0 0 0 0 0 0 0 0 0 0 0 0 0 0 0.139942 0"/>
<feBlend mode="normal" in2="BackgroundImageFix" result="effect1_dropShadow"/>
<feBlend mode="normal" in="SourceGraphic" in2="effect1_dropShadow" result="shape"/>
</filter>
</defs>
</svg>
